
<svg width="154" height="32" viewBox="0 0 154 32" fill="none" xmlns="http://www.w3.org/2000/svg">
  <path d="M22.1224 1.16913C13.8784 -2.14066 4.50587 1.81359 1.17626 10.0085C-2.15336 18.2034 1.82457 27.5202 10.0686 30.83C18.3126 34.1398 27.6851 30.1855 31.0147 21.9906C34.3443 13.8036 30.3664 4.47893 22.1224 1.16913ZM27.2769 20.4948C24.7797 26.6371 17.7523 29.5968 11.5733 27.1224C5.3943 24.64 2.41686 17.6545 4.90607 11.5122C7.14715 6.02244 12.99 3.08659 18.6167 4.28798C19.289 4.43119 19.9534 4.62214 20.6177 4.8847C21.274 5.14725 21.8903 5.47346 22.4746 5.83149L20.9058 9.69822L17.208 18.7842L13.3582 17.2407L17.048 8.15471C13.5663 7.73303 10.1006 9.65049 8.72392 13.0398C7.07512 17.0896 9.04407 21.7042 13.118 23.3352C17.192 24.9742 21.8343 23.017 23.4751 18.9672C24.2594 17.0259 24.2114 14.9653 23.5151 13.1592L25.444 8.42522C28.1253 11.6952 28.9897 16.2939 27.2769 20.4948Z" fill="#6A1B76"/>
  <path fill-rule="evenodd" clip-rule="evenodd" d="M113.103 5.87952C113.103 4.5747 114.143 3.54834 115.416 3.54834C116.72 3.54834 117.761 4.5747 117.761 5.87952C117.761 7.15252 116.729 8.17887 115.416 8.17887C114.135 8.17887 113.103 7.14456 113.103 5.87952ZM48.7035 25.7224C45.9102 25.6667 43.7731 23.6617 43.7011 20.7179H56.2592V19.6915C56.2592 14.5438 53.3938 11.0511 48.2873 11.0511C44.1093 11.0511 40.3555 14.5836 40.3555 19.7631C40.3555 21.0202 40.5556 22.158 40.9077 23.1684C42.1403 26.6373 45.2538 28.5787 48.7035 28.5787C52.8015 28.5787 55.2667 26.6851 56.0271 23.3594H52.7935C52.2732 24.7915 51.0727 25.7701 48.7035 25.7224ZM48.3273 13.8914C51.2568 13.8914 52.8095 15.7452 52.8815 18.1082H43.8051C43.9492 15.9839 45.598 13.8914 48.3273 13.8914ZM102.73 25.5871C100.04 25.5871 97.6553 23.5662 97.6553 19.795C97.6553 15.9521 100.072 14.0346 102.69 14.0346C105.515 14.0346 106.724 15.9203 107.14 17.5354H110.301L110.173 16.8512C110.045 16.1351 109.813 15.4349 109.461 14.7905C108.38 12.8094 106.219 11.0511 102.69 11.0511C97.9594 11.0511 94.3417 14.6552 94.3417 19.795C94.3417 24.7994 97.8954 28.5707 102.722 28.5707C105.419 28.5707 107.356 27.4886 108.629 26.0963C109.517 25.1256 110.101 23.9243 110.381 22.6433L110.477 22.2137L107.348 22.1978C106.972 23.4946 105.835 25.5871 102.73 25.5871ZM117.033 11.5603H113.823V28.0536H117.033V11.5603ZM141.981 13.9312C143.189 11.8705 145.158 11.0829 147.087 11.0829C151.049 11.0829 153.018 13.9312 153.018 17.599V28.0615H149.777V18.148C149.777 15.8487 148.808 13.9949 145.911 13.9949C143.357 13.9949 142.045 16.0157 142.045 18.522V28.0615H138.803V11.5682H141.981V13.9312ZM134.505 24.0913V21.1714H134.497V17.0739C134.497 13.8517 132.568 11.0352 127.598 11.0352C124.012 11.0352 121.147 13.2311 120.802 16.3818L123.908 17.1058C124.116 15.1883 125.389 13.7801 127.67 13.7801C130.191 13.7801 131.256 15.1167 131.256 16.7318C131.256 17.3126 130.983 17.8298 129.983 17.965L125.501 18.6175C122.635 19.0312 120.466 20.6781 120.466 23.6219C120.466 26.2316 122.643 28.5628 126.021 28.5628C128.926 28.5628 130.575 27.0511 131.32 25.8895C131.56 27.3375 132.648 28.4116 134.265 28.4116C135.129 28.4116 135.826 28.2922 136.562 27.9263V25.3564C136.562 25.3564 136.026 25.4757 135.658 25.4757C134.953 25.4837 134.505 25.1973 134.505 24.0913ZM131.256 20.9884C131.256 24.5926 129.118 25.8576 126.461 25.8576C124.804 25.8576 123.772 24.6881 123.772 23.4548C123.772 21.9829 124.804 21.1953 126.189 20.9884L131.264 20.2326V20.9884H131.256ZM90.8039 21.1714V24.0913C90.8039 25.1973 91.2521 25.4837 91.9565 25.4837C92.3246 25.4837 92.8609 25.3643 92.8609 25.3643V27.9342C92.1245 28.3002 91.4282 28.4195 90.5638 28.4195C89.0431 28.4195 87.9945 27.4807 87.6744 26.1679C86.7539 27.8149 84.729 28.5707 82.832 28.5707C78.9662 28.5707 76.621 25.6905 76.621 21.9511V11.5603H79.8626V21.4737C79.8626 23.7333 80.8951 25.7224 83.6244 25.7224C86.2417 25.7224 87.5543 24.0118 87.5543 21.5056V11.5603H90.7959V21.1714H90.8039ZM62.9024 24.1232V21.2032H62.8944V3.97796H59.6528V24.3459H59.6608V25.3007C59.6608 27.0511 60.8134 28.4434 62.6623 28.4434C63.4787 28.4434 64.199 28.4036 64.9594 28.1411V25.5155C64.9594 25.5155 64.4231 25.5075 64.055 25.5075C63.3586 25.5075 62.9024 25.2211 62.9024 24.1232ZM71.9468 21.2032V24.1232C71.9468 25.2211 72.395 25.5075 73.0994 25.5075C73.4675 25.5075 74.0038 25.5155 74.0038 25.5155V28.1411C73.2434 28.4036 72.5231 28.4434 71.7067 28.4434C69.8578 28.4434 68.7052 27.0511 68.7052 25.3007V24.3459H68.6972V3.97796H71.9388V21.2032H71.9468Z" fill="black"/>
</svg>
